# xmcd CD database file
#
# Track frame offsets:
#	150
#	97690
#	110517
#	127400
#	170887
#	186607
#	191335
#	197890
#	234975
#
# Disc length: 4194 seconds
#
# Revision: 0
# Processed by: cddbd v1.5.1PL0 Copyright (c) Steve Scherf et al.
# Submitted via: CDex 1.51
#
DISCID=82106009
DTITLE=Maggie Nicols and Peter Nu - Nicols'N'Nu
DYEAR=1994
DGENRE=Jazz
TTITLE0=Don't assume
TTITLE1=Touching faces
TTITLE2=Dynamite dream
TTITLE3=Kids
TTITLE4=Chad's blues
TTITLE5=After the storm
TTITLE6=I could write
TTITLE7=Moments
TTITLE8=One note leads to another
EXTD=YEAR: 1994
EXTT0=
EXTT1=
EXTT2=
EXTT3=
EXTT4=
EXTT5=
EXTT6=
EXTT7=
EXTT8=
PLAYORDER=
